<svg width="30" height="30" viewBox="0 0 30 30" fill="none" xmlns="http://www.w3.org/2000/svg">
<path d="M21.6357 18.6701L23.3521 13.5208C24.8516 9.02242 25.6013 6.77322 24.414 5.58595C23.2268 4.39869 20.9776 5.14842 16.4792 6.64788L11.3299 8.36432C7.69923 9.57453 5.88392 10.1796 5.36806 11.067C4.87731 11.9111 4.87731 12.9537 5.36806 13.7978C5.88392 14.6852 7.69923 15.2903 11.3299 16.5005C11.9128 16.6948 12.2043 16.792 12.4479 16.9551C12.684 17.1131 12.8869 17.316 13.0449 17.5521C13.208 17.7957 13.3052 18.0872 13.4995 18.6701C14.7097 22.3008 15.3148 24.1161 16.2022 24.6319C17.0463 25.1227 18.0889 25.1227 18.933 24.6319C19.8204 24.1161 20.4255 22.3008 21.6357 18.6701Z" stroke="#F5F5F5" stroke-width="1.5"/>
<path opacity="0.5" d="M20.7896 9.21088L16.5791 13.375" stroke="#F5F5F5" stroke-width="1.5" stroke-linecap="round"/>
</svg>
