<svg width="14" height="14" viewBox="0 0 14 14" fill="none" xmlns="http://www.w3.org/2000/svg">
<path d="M7.93359 2.33398C7.93359 2.33398 8.96026 2.42732 10.2669 3.73398C11.5736 5.04065 11.6669 6.06732 11.6669 6.06732" stroke="#F5F5F5" stroke-width="0.7" stroke-linecap="round"/>
<path d="M8.03027 3.9834C8.03027 3.9834 8.49225 4.11539 9.18521 4.80836C9.87818 5.50132 10.0102 5.9633 10.0102 5.9633" stroke="#F5F5F5" stroke-width="0.7" stroke-linecap="round"/>
<path opacity="0.5" d="M6.08414 3.88081L6.38702 4.42352C6.66034 4.91327 6.55062 5.55575 6.12013 5.98624C6.12013 5.98624 6.12013 5.98624 6.12013 5.98624C6.12008 5.9863 5.59801 6.50846 6.54471 7.45516C7.49109 8.40155 8.01325 7.88012 8.01363 7.87974C8.01364 7.87973 8.01363 7.87973 8.01364 7.87972C8.44413 7.44925 9.0866 7.33953 9.57635 7.61285L10.1191 7.91573C10.8586 8.32845 10.9459 9.36558 10.2959 10.0156C9.90529 10.4062 9.42679 10.7102 8.89783 10.7302C8.00736 10.764 6.49513 10.5386 4.9782 9.02167C3.46126 7.50474 3.2359 5.99251 3.26966 5.10204C3.28971 4.57308 3.59364 4.09458 3.98424 3.70398C4.63429 3.05393 5.67142 3.14127 6.08414 3.88081Z" stroke="#F5F5F5" stroke-width="0.7" stroke-linecap="round"/>
</svg>
