<svg width="219" height="264" viewBox="0 0 219 264" fill="none" xmlns="http://www.w3.org/2000/svg">
<path opacity="0.3" d="M58.6913 263.464C59.2168 263.634 59.7806 263.346 59.9507 262.821L62.7233 254.258C62.8934 253.733 62.6054 253.169 62.08 252.999C61.5546 252.829 60.9907 253.117 60.8206 253.642L58.3561 261.253L50.7451 258.789C50.2197 258.618 49.6559 258.906 49.4857 259.432C49.3156 259.957 49.6036 260.521 50.129 260.691L58.6913 263.464ZM100.294 2.3263C147.045 48.9671 177.549 80.4037 195.636 100.667C204.686 110.806 210.594 118.112 213.874 123.108C215.521 125.618 216.456 127.472 216.821 128.769C217.196 130.102 216.881 130.438 216.713 130.552C216.557 130.658 216.261 130.767 215.737 130.793C215.221 130.818 214.554 130.759 213.728 130.598C212.074 130.277 209.919 129.581 207.3 128.546C202.068 126.477 195.151 123.125 186.998 118.969C170.725 110.675 149.585 99.21 127.494 88.6464C105.4 78.0816 82.2627 68.3718 61.9272 63.5783C41.6697 58.8032 23.828 58.8185 12.6755 68.2108C1.4697 77.6481 -2.53882 96.1449 3.81756 127.128C10.1876 158.178 27.033 202.129 58.1088 262.967L59.8899 262.058C28.8407 201.271 12.0923 157.51 5.77675 126.726C-0.5524 95.8757 3.66177 78.4167 13.9639 69.7406C24.3193 61.0195 41.2707 60.764 61.4684 65.525C81.5882 70.2676 104.568 79.9008 126.631 90.4507C148.696 101.002 169.751 112.423 186.09 120.751C194.243 124.907 201.235 128.299 206.565 130.406C209.225 131.457 211.514 132.206 213.347 132.562C214.264 132.74 215.102 132.826 215.836 132.79C216.562 132.755 217.263 132.595 217.834 132.208C219.121 131.337 219.186 129.793 218.746 128.228C218.296 126.626 217.221 124.563 215.546 122.011C212.18 116.883 206.187 109.484 197.128 99.3355C178.998 79.0237 148.456 47.5501 101.707 0.910411L100.294 2.3263Z" fill="#255C09"/>
</svg>
