<svg width="219" height="264" viewBox="0 0 219 264" fill="none" xmlns="http://www.w3.org/2000/svg">
<path opacity="0.3" d="M58.6913 263.451C59.2168 263.621 59.7806 263.333 59.9507 262.808L62.7233 254.246C62.8934 253.72 62.6054 253.156 62.08 252.986C61.5546 252.816 60.9907 253.104 60.8206 253.629L58.3561 261.24L50.7451 258.776C50.2197 258.606 49.6559 258.894 49.4857 259.419C49.3156 259.945 49.6036 260.508 50.129 260.679L58.6913 263.451ZM100.294 2.3136C147.045 48.9544 177.549 80.391 195.636 100.655C204.686 110.794 210.594 118.099 213.874 123.096C215.521 125.605 216.456 127.46 216.821 128.757C217.196 130.09 216.881 130.425 216.713 130.539C216.557 130.645 216.261 130.754 215.737 130.78C215.221 130.805 214.554 130.746 213.728 130.586C212.074 130.265 209.919 129.568 207.3 128.533C202.068 126.465 195.151 123.112 186.998 118.956C170.725 110.662 149.585 99.1973 127.494 88.6337C105.4 78.0689 82.2627 68.3591 61.9272 63.5656C41.6697 58.7905 23.828 58.8058 12.6755 68.1981C1.4697 77.6354 -2.53882 96.1322 3.81756 127.115C10.1876 158.165 27.033 202.116 58.1088 262.955L59.8899 262.045C28.8407 201.258 12.0923 157.498 5.77675 126.714C-0.5524 95.863 3.66177 78.404 13.9639 69.7279C24.3193 61.0068 41.2707 60.7513 61.4684 65.5123C81.5882 70.2549 104.568 79.8881 126.631 90.438C148.696 100.989 169.751 112.41 186.09 120.738C194.243 124.894 201.235 128.286 206.565 130.393C209.225 131.445 211.514 132.193 213.347 132.549C214.264 132.727 215.102 132.814 215.836 132.778C216.562 132.742 217.263 132.582 217.834 132.195C219.121 131.324 219.186 129.78 218.746 128.215C218.296 126.614 217.221 124.551 215.546 121.998C212.18 116.87 206.187 109.471 197.128 99.3228C178.998 79.011 148.456 47.5374 101.707 0.897716L100.294 2.3136Z" fill="#255C09"/>
</svg>
