<svg width="212" height="480" viewBox="0 0 212 480" fill="none" xmlns="http://www.w3.org/2000/svg">
<path opacity="0.3" d="M59.1917 479.33C59.7172 479.501 60.281 479.213 60.4512 478.687L63.2237 470.125C63.3939 469.599 63.1058 469.036 62.5804 468.865C62.055 468.695 61.4911 468.983 61.321 469.509L58.8565 477.12L51.2456 474.655C50.7201 474.485 50.1563 474.773 49.9861 475.298C49.816 475.824 50.104 476.388 50.6294 476.558L59.1917 479.33ZM91.7935 2.08652C138.531 48.7147 169.146 83.4973 187.449 109.621C196.601 122.683 202.651 133.547 206.105 142.619C209.561 151.694 210.392 158.906 209.2 164.705C206.836 176.201 196.357 182.695 180.626 187.034C164.932 191.362 144.508 193.413 122.926 196.371C101.404 199.321 78.8018 203.169 58.9783 211.113C39.1385 219.063 22.0105 231.145 11.5332 250.602C1.06004 270.05 -2.68736 296.719 3.92644 333.684C10.5394 370.645 27.5234 417.976 58.6092 478.834L60.3904 477.924C29.3511 417.157 12.46 370.023 5.89517 333.332C-0.6688 296.645 3.10329 270.474 13.2941 251.55C23.4809 232.633 40.1615 220.808 59.7222 212.969C79.299 205.124 101.689 201.301 123.198 198.353C144.648 195.412 165.294 193.336 181.157 188.962C196.982 184.597 208.546 177.814 211.159 165.108C212.455 158.806 211.508 151.188 207.975 141.907C204.44 132.624 198.29 121.609 189.087 108.474C170.682 82.2039 139.968 47.323 93.206 0.670631L91.7935 2.08652Z" fill="#255C09"/>
</svg>
